<svg width="131" height="20" viewBox="0 0 131 20" fill="none" xmlns="http://www.w3.org/2000/svg">
<g id="Delta logo" clip-path="url(#clip0_11_114)">
<path id="Vector" d="M35.5058 2.19965H34.9751V18.0621H41.3621C42.3793 18.0621 43.2954 17.9725 44.0845 17.7975C44.8953 17.6174 45.6013 17.3455 46.1832 16.9919C46.7694 16.6333 47.3123 16.1394 47.8003 15.5248C48.2869 14.9094 48.6883 14.1292 48.9951 13.2073C49.2991 12.2882 49.4543 11.2267 49.4543 10.051C49.4543 8.66843 49.2261 7.41603 48.7771 6.32995C48.3363 5.24523 47.6161 4.29706 46.69 3.5822C45.9731 3.02469 45.0996 2.6335 44.0946 2.42308C43.3879 2.27268 42.4067 2.19965 41.0972 2.19965H35.5058ZM41.0553 5.0197C42.2645 5.0197 43.1395 5.11081 43.655 5.29159C44.3459 5.53672 44.9234 6.01468 45.4194 6.7544C45.9132 7.49196 46.1637 8.58961 46.1637 10.0199C46.1637 11.0684 46.0316 11.9643 45.7702 12.6852C45.5176 13.383 45.166 13.9398 44.7242 14.3425C44.4231 14.6166 44.0029 14.835 43.4752 14.9919C42.92 15.1575 42.1252 15.2421 41.1109 15.2421H38.1798V5.0197H41.0553Z" fill="white"/>
<path id="Vector_2" d="M35.5058 17.5299V2.73112H41.0972C42.3591 2.73112 43.3222 2.80198 43.9856 2.94226C44.9155 3.13822 45.7096 3.49253 46.3666 4.00376C47.2228 4.6625 47.8624 5.50635 48.2876 6.53169C48.7121 7.55848 48.9244 8.73134 48.9244 10.0495C48.9244 11.1739 48.7807 12.1711 48.4927 13.0388C48.2046 13.9065 47.835 14.6253 47.3845 15.1929C46.9347 15.762 46.4416 16.2096 45.9074 16.5357C45.3717 16.8625 44.7263 17.1091 43.9697 17.2776C43.2131 17.4453 42.3439 17.5292 41.3621 17.5292L35.5058 17.5299ZM37.6492 15.7728H41.1101C42.1793 15.7728 43.0175 15.6824 43.6261 15.5009C44.234 15.3194 44.7191 15.0642 45.0808 14.7352C45.5898 14.2717 45.9854 13.6491 46.2684 12.866C46.5535 12.0836 46.6943 11.1342 46.6943 10.0192C46.6943 8.47391 46.4156 7.28732 45.8598 6.45721C45.3031 5.62783 44.6267 5.07177 43.8304 4.78904C43.2557 4.5873 42.3302 4.48679 41.0553 4.48679H37.6492V15.7728ZM69.1508 2.19965H58.6784V18.0621H70.0323V15.2428H61.6889V11.2679H69.1342V8.44861H61.6889V5.02115H69.6807V2.20109H69.1508V2.19965Z" fill="white"/>
<path id="Vector_3" d="M59.2091 17.5299V2.73112H69.1508V4.48823H61.1576V8.97936H68.6043V10.7357H61.1576V15.7735H69.501V17.5306L59.2091 17.5299ZM82.8726 2.19965H80.3921V18.0621H90.6544V15.2428H83.4025V2.20037L82.8726 2.19965Z" fill="white"/>
<path id="Vector_4" d="M80.9227 17.5299V2.73112H82.8726V15.7728H90.1245V17.5299H80.9227ZM108.285 2.19965H96.0573V5.0197H100.931V18.0614H103.941V5.0197H108.815V2.19965H108.285Z" fill="white"/>
<path id="Vector_5" d="M101.461 17.5299V4.48823H96.5865V2.73112H108.284V4.48823H103.409V17.5299H101.461ZM123.071 2.19965H120.545L113.827 18.0621H117.032C117.032 18.0621 118.424 14.1704 118.637 13.571H125.417L127.101 18.0621H130.474L123.429 2.19965H123.071ZM121.986 6.01902C122.242 6.78116 122.501 7.5433 122.501 7.5433L123.766 10.9064H120.256L121.615 7.29672V7.29744C121.77 6.88456 121.857 6.44492 121.986 6.01902Z" fill="white"/>
<path id="Vector_6" d="M114.599 17.5299L120.911 2.73112H123.072L129.688 17.5299H127.469L125.785 13.0395H118.265L116.66 17.5299H114.599ZM119.489 11.4386H124.532L123 7.36035C122.543 6.11157 122.192 5.07683 121.946 4.25323C121.747 5.22584 121.47 6.18094 121.118 7.10944L119.489 11.4386ZM0.526352 17.5285L12.1141 0V12.3172L0.526352 17.5285ZM12.1141 14.613V20H0.566058L12.1141 14.613ZM23.7019 17.5285L12.1141 0V12.3172L23.7019 17.5285ZM12.1141 14.613V20H23.6615L12.1141 14.613ZM25.4367 17.5212C25.574 17.5211 25.7081 17.4802 25.8222 17.4038C25.9363 17.3273 26.0252 17.2187 26.0777 17.0917C26.1302 16.9646 26.1439 16.8249 26.1172 16.69C26.0904 16.5552 26.0243 16.4313 25.9273 16.334C25.8303 16.2367 25.7067 16.1705 25.5721 16.1435C25.4375 16.1166 25.2979 16.1302 25.1711 16.1826C25.0442 16.2351 24.9356 16.324 24.8592 16.4382C24.7827 16.5524 24.7418 16.6867 24.7415 16.8242C24.7415 17.2067 25.0527 17.5212 25.4367 17.5212ZM25.4367 17.3882C25.2875 17.3882 25.1443 17.3288 25.0388 17.2231C24.9333 17.1174 24.874 16.974 24.874 16.8245C24.874 16.6751 24.9333 16.5317 25.0388 16.426C25.1443 16.3203 25.2875 16.2609 25.4367 16.2609C25.7508 16.2609 25.9984 16.5118 25.9984 16.8249C25.9989 16.899 25.9847 16.9724 25.9566 17.0409C25.9286 17.1094 25.8872 17.1716 25.835 17.224C25.7827 17.2764 25.7206 17.3179 25.6523 17.3461C25.5839 17.3743 25.5106 17.3886 25.4367 17.3882ZM25.5999 16.8871C25.7334 16.8777 25.8056 16.8206 25.8056 16.6832C25.8056 16.6044 25.7847 16.5313 25.7168 16.4872C25.6612 16.4547 25.5775 16.454 25.5132 16.454H25.1516V17.2016L25.2959 17.2024V16.8871H25.4447L25.6114 17.2024L25.7832 17.2016L25.5999 16.8871ZM25.2959 16.7728V16.5595L25.4786 16.5603C25.5529 16.5603 25.6591 16.5595 25.6591 16.6593C25.6591 16.7555 25.5999 16.7743 25.5169 16.7728H25.2959Z" fill="white"/>
</g>
<defs>
<clipPath id="clip0_11_114">
<rect width="130" height="20" fill="white" transform="translate(0.5)"/>
</clipPath>
</defs>
</svg>
